<svg width="111" height="22" viewBox="0 0 111 22" fill="none" xmlns="http://www.w3.org/2000/svg">
<path d="M35.9438 21.5407L36.3317 16.0869C36.5257 13.1289 36.7196 10.3557 36.8166 7.76747C36.9136 5.17921 36.9136 3.42289 36.9136 2.40607V0.742188C38.1742 0.742188 39.047 0.742188 39.6288 0.742188C40.0167 0.742188 40.7925 0.742188 42.0531 0.742188L41.6652 7.58259V9.15404H52.5261L52.7201 4.99433C52.7201 3.60776 52.8171 2.68338 52.8171 2.22119V0.742188H55.5323C55.7262 0.742188 56.599 0.742188 57.9566 0.742188L57.4717 9.0616L57.2778 15.2549L57.1808 18.86C57.1808 20.339 57.1808 21.2634 57.1808 21.6332H54.6595C54.3686 21.6332 53.4959 21.6332 52.0413 21.6332C52.3322 18.7676 52.5261 15.7171 52.5261 12.5742H41.3743L41.1804 18.213L41.0834 21.6332H38.4651C38.1742 21.5407 37.3015 21.5407 35.9438 21.5407Z" fill="black"/>
<path d="M73.861 0.371094C75.4126 0.371094 76.9641 0.555974 78.4187 1.01816C79.8733 1.48035 81.1339 2.12742 82.2976 3.05179C83.4613 3.97617 84.2371 5.08543 84.8189 6.37956C85.4007 7.67369 85.6916 9.06026 85.6916 10.7241C85.6916 12.2956 85.4007 13.7746 84.9159 15.2536C84.334 16.6402 83.5582 17.9343 82.3946 18.9511C81.2309 19.9679 79.8733 20.7074 78.2248 21.2621C76.5762 21.7242 74.8307 22.0016 73.0852 22.0016C71.3397 22.0016 69.6912 21.8167 68.1396 21.3545C66.5881 20.8923 65.2304 20.1528 64.0668 19.2284C62.9031 18.304 62.1273 17.1024 61.6425 15.9007C61.1576 14.6065 60.8667 13.22 60.8667 11.741C60.8667 10.0771 61.1576 8.59807 61.7394 7.11906C62.3213 5.64006 63.291 4.43836 64.4547 3.42155C65.6183 2.49717 67.0729 1.75766 68.6245 1.20304C70.273 0.648409 72.0185 0.371094 73.861 0.371094ZM73.5701 3.60642C71.9215 3.60642 70.5639 3.97617 69.4003 4.62324C68.2366 5.36274 67.2669 6.28712 66.685 7.48882C66.1032 8.69051 65.8123 10.0771 65.8123 11.4636C65.8123 12.7578 66.1032 14.0519 66.685 15.1612C67.2669 16.2704 68.1396 17.1024 69.4003 17.7494C70.5639 18.304 71.9215 18.5814 73.2792 18.5814C74.3459 18.5814 75.3156 18.3965 76.2853 18.0267C77.255 17.657 78.0308 17.1948 78.8066 16.4553C79.4854 15.7158 80.0672 14.8838 80.3582 13.867C80.746 12.8502 80.843 11.8334 80.843 10.7241C80.843 9.70733 80.6491 8.78294 80.3582 7.85856C80.0672 6.93418 79.5824 6.10224 78.9036 5.45518C78.2248 4.80811 77.449 4.25349 76.4793 3.97617C75.6065 3.7913 74.6368 3.60642 73.5701 3.60642Z" fill="black"/>
<path d="M85.8838 21.5407C86.9505 19.692 88.3081 17.381 89.7627 14.6079L93.9325 6.93552C94.7083 5.45652 95.4841 4.16239 96.0659 2.9607C96.7447 1.57413 98.1993 0.742188 99.7509 0.742188C99.8478 0.742188 99.9448 0.742188 100.139 0.742188C101.884 0.742188 103.533 1.85144 104.115 3.42289L105.375 6.93552L110.321 19.8768L111 21.5407H108.575C107.994 21.5407 107.121 21.5407 105.763 21.5407C105.472 20.6163 105.084 19.4146 104.599 17.8432C104.115 16.2718 103.533 15.0701 103.242 14.1457H94.8053C93.5446 16.5491 92.381 19.0449 91.1203 21.5407H88.5021C88.1142 21.5407 87.2414 21.5407 85.8838 21.5407ZM96.3568 11.0028H102.466L100.333 5.17921C100.139 4.71702 99.5569 4.71701 99.363 5.08677L98.6842 6.47333L96.3568 11.0028Z" fill="black"/>
<path d="M11.9188 18.5476C10.7827 18.5292 12.3135 20.1811 11.4952 20.1811C11.0234 20.1811 10.0607 21.3742 9.51192 21.3833C9.05943 21.3925 8.58769 21.3925 8.09669 21.4017C5.49728 14.4454 2.80159 7.55325 0 0.71621C1.02051 0.734565 1.83883 0.743741 2.47425 0.743741C3.17705 0.743741 3.99539 0.734565 4.94851 0.71621L9.40602 13.2615L11.5433 18.5751M21.5462 18.5843L26.3407 9.40705L29.4311 2.91875L30.442 0.707031C31.4625 0.725386 32.2808 0.734562 32.897 0.734562C33.5805 0.734562 34.3989 0.725386 35.3616 0.707031L32.3771 6.36021L26.1289 18.5751L24.7329 21.3925C24.0975 21.3833 23.5102 21.3742 22.9807 21.365C22.5667 21.365 22.3646 20.8878 22.0083 20.8878C21.1611 20.8878 22.2298 19.502 21.1322 19.5204" fill="black"/>
<path d="M24.3121 5.90096H19.8546C19.8546 4.8364 18.9785 3.96457 17.7943 3.96457C16.6005 3.96457 15.7533 4.8364 15.7533 5.90096H11.0166C11.0166 2.64304 14.1648 0 17.7943 0C21.4239 0 24.3121 2.65222 24.3121 5.90096Z" fill="#4FEABF"/>
<path d="M11.0166 5.89844L18.9111 21.3988L22.9931 21.3713L15.7533 5.89844H11.0166Z" fill="url(#paint0_linear_3422_21022)"/>
<path d="M19.8511 5.89844L9.51123 21.3713L13.9784 21.3988L24.3086 5.89844H19.8511Z" fill="#4FEABF"/>
<defs>
<linearGradient id="paint0_linear_3422_21022" x1="14.0001" y1="7.34211" x2="20.7633" y2="21.4437" gradientUnits="userSpaceOnUse">
<stop stop-color="#4FEABF"/>
<stop offset="0.28" stop-color="#1EDFBC"/>
</linearGradient>
</defs>
</svg>
